<svg xmlns="http://www.w3.org/2000/svg" viewBox="0 0 80 105"><path d="M 1.50,105.00 L 1.35,104.99 L 1.21,104.97 L 1.06,104.94 L 0.93,104.89 L 0.79,104.82 L 0.67,104.75 L 0.55,104.66 L 0.44,104.56 L 0.34,104.45 L 0.25,104.33 L 0.18,104.21 L 0.11,104.07 L 0.06,103.94 L 0.03,103.79 L 0.01,103.65 L 0.00,103.50 L 0.00,94.50 L 0.01,94.35 L 0.03,94.21 L 0.06,94.06 L 0.11,93.93 L 0.18,93.79 L 0.25,93.67 L 0.34,93.55 L 0.44,93.44 L 0.55,93.34 L 0.67,93.25 L 0.79,93.18 L 0.93,93.11 L 1.06,93.06 L 1.21,93.03 L 1.35,93.01 L 1.50,93.00 L 4.50,93.00 L 4.65,93.01 L 4.79,93.03 L 4.94,93.06 L 5.07,93.11 L 5.21,93.18 L 5.33,93.25 L 5.45,93.34 L 5.56,93.44 L 5.66,93.55 L 5.75,93.67 L 5.82,93.79 L 5.89,93.93 L 5.94,94.06 L 5.97,94.21 L 5.99,94.35 L 6.00,94.50 L 6.00,96.96 L 6.00,97.00 L 6.04,97.00 L 16.96,97.00 L 17.00,97.00 L 17.01,96.96 L 35.24,11.19 L 35.28,11.05 L 35.33,10.91 L 35.39,10.78 L 35.47,10.66 L 35.56,10.54 L 35.65,10.43 L 35.76,10.33 L 35.88,10.25 L 36.01,10.17 L 36.14,10.11 L 36.28,10.06 L 36.42,10.03 L 36.56,10.01 L 36.71,10.00 L 43.64,10.00 L 43.79,10.01 L 43.93,10.03 L 44.08,10.07 L 44.22,10.12 L 44.35,10.18 L 44.48,10.26 L 44.60,10.35 L 44.71,10.45 L 44.81,10.56 L 44.89,10.68 L 44.97,10.80 L 45.03,10.94 L 45.08,11.08 L 45.11,11.22 L 45.13,11.37 L 45.14,11.52 L 45.13,11.67 L 45.11,11.81 L 27.01,96.96 L 27.00,97.00 L 27.04,97.00 L 68.50,97.00 L 68.65,97.01 L 68.79,97.03 L 68.94,97.06 L 69.07,97.11 L 69.21,97.18 L 69.33,97.25 L 69.45,97.34 L 69.56,97.44 L 69.66,97.55 L 69.75,97.67 L 69.82,97.79 L 69.89,97.93 L 69.94,98.06 L 69.97,98.21 L 69.99,98.35 L 70.00,98.50 L 70.00,103.50 L 69.99,103.65 L 69.97,103.79 L 69.94,103.94 L 69.89,104.07 L 69.82,104.21 L 69.75,104.33 L 69.66,104.45 L 69.56,104.56 L 69.45,104.66 L 69.33,104.75 L 69.21,104.82 L 69.07,104.89 L 68.94,104.94 L 68.79,104.97 L 68.65,104.99 L 68.50,105.00 L 1.50,105.00 Z" fill="#e8e2d4" stroke="#2b2b2b" stroke-width="1.2"/></svg>